Coordinates
version=1
nRows=42
nColumns=38
inDegrees=no

Units are S.I. units (second, meters, Newtons, ...)
If the header above contains a line with 'inDegrees', this indicates whether rotational values are in degrees (yes) or radians (no).

endheader
time	pelvis_tilt	pelvis_list	pelvis_rotation	pelvis_tx	pelvis_ty	pelvis_tz	hip_flexion_r	hip_adduction_r	hip_rotation_r	knee_angle_r	ankle_angle_r	subtalar_angle_r	mtp_angle_r	hip_flexion_l	hip_adduction_l	hip_rotation_l	knee_angle_l	ankle_angle_l	subtalar_angle_l	mtp_angle_l	lumbar_extension	lumbar_bending	lumbar_rotation	arm_flex_r	arm_add_r	arm_rot_r	elbow_flex_r	pro_sup_r	wrist_flex_r	wrist_dev_r	arm_flex_l	arm_add_l	arm_rot_l	elbow_flex_l	pro_sup_l	wrist_flex_l	wrist_dev_l
1.03	0.0928064	1.30744	-1.60736	0.811329	0.582007	0.953159	0.320687	-0.170626	-0.241094	0.785775	0.1824	0	0	-0.392174	0.0774609	-0.140924	0.0990209	0.0646467	0	0	-0.25166	0.0534804	-0.0899478	0.331624	-0.116721	-0.504175	1.68865	0	0	0	0.495312	-0.259521	-0.379318	1.57408	0.709726	0	0
1.04	0.0881614	1.31318	-1.60059	0.811269	0.571908	0.951823	0.315061	-0.166007	-0.266713	0.708162	0.179317	0	0	-0.401024	0.0747359	-0.137838	0.0942228	0.0719434	0	0	-0.247868	0.0556226	-0.0924489	0.333016	-0.116903	-0.504563	1.68884	0	0	0	0.498492	-0.25762	-0.381064	1.57268	0.702715	0	0
1.05	0.0893897	1.31971	-1.60088	0.810933	0.56162	0.950124	0.309307	-0.161707	-0.292519	0.629815	0.174935	0	0	-0.409332	0.0737003	-0.135951	0.0892209	0.0795879	0	0	-0.24279	0.0555878	-0.0940952	0.334497	-0.116815	-0.504944	1.68864	0	0	0	0.501286	-0.257337	-0.381168	1.57122	0.696387	0	0
1.06	0.0899279	1.3257	-1.60081	0.810396	0.551226	0.94835	0.299933	-0.15488	-0.319331	0.547042	0.171941	0	0	-0.418666	0.0722467	-0.13403	0.0837048	0.0868245	0	0	-0.238113	0.0554843	-0.0956802	0.336523	-0.116453	-0.505306	1.68741	0	0	0	0.50414	-0.257787	-0.381341	1.56859	0.682176	0	0
1.07	0.0958396	1.33308	-1.60739	0.80958	0.540737	0.946232	0.291292	-0.146562	-0.342526	0.465134	0.169391	0	0	-0.426093	0.0721314	-0.133759	0.0791677	0.0941922	0	0	-0.231576	0.053501	-0.0962796	0.337468	-0.115996	-0.504795	1.68654	0	0	0	0.506728	-0.258805	-0.379893	1.56663	0.689437	0	0
1.08	0.103636	1.34053	-1.61642	0.808574	0.530083	0.943977	0.280116	-0.135554	-0.361395	0.381759	0.16187	0	0	-0.433635	0.0722738	-0.13353	0.0746712	0.101076	0	0	-0.224315	0.0508668	-0.0965746	0.339737	-0.114572	-0.505291	1.68329	0	0	0	0.509004	-0.259744	-0.378657	1.5639	0.697249	0	0
1.09	0.123554	1.34958	-1.63859	0.807198	0.519078	0.941191	0.275712	-0.130863	-0.390136	0.315709	0.161019	0	0	-0.439205	0.0748298	-0.133874	0.0713284	0.108549	0	0	-0.213865	0.044775	-0.096377	0.339066	-0.112609	-0.504001	1.68181	0	0	0	0.510364	-0.261504	-0.377455	1.56109	0.704436	0	0
1.1	0.127123	1.35601	-1.64474	0.80571	0.5079	0.93881	0.255266	-0.110041	-0.385653	0.224473	0.145668	0	0	-0.447616	0.07313	-0.136735	0.0691588	0.11689	0	0	-0.206016	0.0430469	-0.0956581	0.34161	-0.109914	-0.50489	1.67624	0	0	0	0.511935	-0.261088	-0.382534	1.55342	0.650471	0	0
1.11	0.142906	1.36412	-1.66303	0.804194	0.496383	0.935943	0.24142	-0.0952231	-0.383016	0.152227	0.134404	0	0	-0.452805	0.0735385	-0.139658	0.0700036	0.126239	0	0	-0.194973	0.0386577	-0.0955816	0.341201	-0.107437	-0.503637	1.67301	0	0	0	0.511605	-0.261118	-0.384691	1.54979	0.65322	0	0
1.12	0.160411	1.37172	-1.68294	0.802694	0.48456	0.932977	0.231022	-0.0836363	-0.383508	0.098272	0.123586	0	0	-0.457258	0.0737172	-0.143474	0.0737964	0.136347	0	0	-0.183391	0.034257	-0.0959156	0.343372	-0.103879	-0.504536	1.66663	0	0	0	0.510382	-0.260587	-0.388026	1.54576	0.656226	0	0
1.13	0.174429	1.37776	-1.69901	0.801332	0.472488	0.930145	0.224495	-0.0752837	-0.39188	0.0670703	0.11712	0	0	-0.462431	0.072877	-0.146998	0.0798555	0.146079	0	0	-0.172929	0.0311934	-0.0965267	0.344119	-0.101381	-0.504175	1.6621	0	0	0	0.508464	-0.259361	-0.391697	1.54129	0.659495	0	0
1.14	0.176109	1.38101	-1.70205	0.800122	0.460161	0.927695	0.217586	-0.0673419	-0.404573	0.0535773	0.112691	0	0	-0.469601	0.0693156	-0.151142	0.0889247	0.15583	0	0	-0.165485	0.0310739	-0.0979424	0.346058	-0.099252	-0.503892	1.65732	0	0	0	0.506165	-0.257224	-0.397952	1.53551	0.636139	0	0
1.15	0.16565	1.38164	-1.69221	0.799056	0.447561	0.925596	0.208638	-0.0590023	-0.416863	0.054276	0.109517	0	0	-0.478089	0.063001	-0.156596	0.102148	0.166116	0	0	-0.160852	0.033645	-0.100093	0.350787	-0.0965579	-0.50594	1.65043	0	0	0	0.503183	-0.254449	-0.40372	1.53141	0.634052	0	0
1.16	0.149923	1.38106	-1.67682	0.798046	0.434785	0.923683	0.20305	-0.0537625	-0.435994	0.0767953	0.114331	0	0	-0.484502	0.0549864	-0.165629	0.122588	0.177894	0	0	-0.157287	0.0373367	-0.102604	0.362758	-0.0900496	-0.516753	1.636	0	0	0	0.498661	-0.251839	-0.404238	1.533	0.717951	0	0
1.17	0.12703	1.37779	-1.65456	0.797043	0.421658	0.922059	0.191787	-0.047816	-0.447686	0.102325	0.118059	0	0	-0.494681	0.0461912	-0.17224	0.141337	0.185099	0	0	-0.156603	0.0432302	-0.104332	0.363494	-0.0889096	-0.516481	1.63466	0	0	0	0.494279	-0.24859	-0.410013	1.52996	0.713299	0	0
1.18	0.10246	1.37377	-1.63052	0.796001	0.408261	0.920551	0.179847	-0.0432002	-0.461286	0.13147	0.131473	0	0	-0.502849	0.0359914	-0.182036	0.16606	0.192679	0	0	-0.156467	0.0499121	-0.10576	0.363073	-0.0874895	-0.516769	1.6354	0	0	0	0.489442	-0.245544	-0.415434	1.527	0.708524	0	0
1.19	0.0713503	1.36899	-1.60038	0.794784	0.394649	0.919227	0.164432	-0.0351744	-0.470533	0.148275	0.149789	0	0	-0.509274	0.0232871	-0.19532	0.195835	0.199738	0	0	-0.157028	0.058509	-0.106039	0.354585	-0.0894976	-0.510349	1.64519	0	0	0	0.484437	-0.24285	-0.419797	1.52342	0.703442	0	0
1.2	0.0344857	1.36501	-1.56578	0.793106	0.380948	0.918099	0.14617	-0.0208068	-0.465925	0.143778	0.152034	0	0	-0.511551	0.00785318	-0.211917	0.231928	0.205115	0	0	-0.156614	0.068187	-0.105008	0.349307	-0.0891995	-0.5077	1.65044	0	0	0	0.478738	-0.241143	-0.423537	1.51958	0.697859	0	0
1.21	-0.008397	1.36173	-1.52742	0.790842	0.367246	0.917198	0.124307	-0.000273996	-0.442724	0.119148	0.120065	0	0	-0.508459	-0.0106555	-0.234206	0.276722	0.207812	0	0	-0.155651	0.0787328	-0.101297	0.345695	-0.0875062	-0.508265	1.65289	0	0	0	0.473008	-0.240251	-0.426177	1.51561	0.688309	0	0
1.22	-0.0520047	1.35806	-1.49017	0.788144	0.353475	0.916575	0.100129	0.0209779	-0.414024	0.0886082	0.0656368	0	0	-0.500262	-0.0318487	-0.260817	0.331902	0.204938	0	0	-0.155142	0.0891212	-0.0952104	0.344034	-0.084764	-0.512042	1.6523	0	0	0	0.467407	-0.240284	-0.4271	1.51199	0.676717	0	0
1.23	-0.0909943	1.35195	-1.45826	0.785297	0.339667	0.916476	0.0771797	0.0383931	-0.394038	0.0713199	0.0215482	0	0	-0.490212	-0.0546419	-0.286157	0.393714	0.191857	0	0	-0.157192	0.0985903	-0.0878485	0.343886	-0.0818099	-0.517665	1.64945	0	0	0	0.462151	-0.241578	-0.42383	1.51003	0.689747	0	0
1.24	-0.120254	1.34357	-1.43593	0.782589	0.325988	0.917008	0.0626747	0.0478925	-0.394138	0.0847281	0.0100679	0	0	-0.478408	-0.0767702	-0.30296	0.459292	0.165514	0	0	-0.161791	0.106316	-0.0806324	0.349951	-0.0772272	-0.528152	1.63909	0	0	0	0.457753	-0.24311	-0.421104	1.50658	0.683407	0	0
1.25	-0.154908	1.33247	-1.40866	0.779925	0.312608	0.918019	0.0493974	0.0572306	-0.398141	0.108752	0.00978531	0	0	-0.461986	-0.103939	-0.319155	0.535132	0.125282	0	0	-0.17017	0.116593	-0.0719246	0.350235	-0.0774785	-0.531675	1.63602	0	0	0	0.454872	-0.244002	-0.417248	1.50332	0.677271	0	0
1.26	-0.192594	1.32152	-1.3802	0.777215	0.29982	0.919229	0.0398974	0.065602	-0.403871	0.13937	0.016768	0	0	-0.438405	-0.133278	-0.329658	0.617956	0.0685049	0	0	-0.180093	0.128269	-0.0609353	0.350691	-0.0798264	-0.532871	1.63465	0	0	0	0.453209	-0.243688	-0.414327	1.50109	0.668906	0	0
1.27	-0.231943	1.31293	-1.35177	0.774423	0.28767	0.92032	0.0349387	0.0733264	-0.408786	0.172202	0.0289899	0	0	-0.40593	-0.162864	-0.332729	0.70491	-0.00633775	0	0	-0.188987	0.140011	-0.0482662	0.35249	-0.0829899	-0.533373	1.63268	0	0	0	0.452349	-0.242592	-0.412546	1.5007	0.659545	0	0
1.28	-0.268444	1.30679	-1.32629	0.771685	0.275933	0.92119	0.0323862	0.0801434	-0.411199	0.202476	0.0371064	0	0	-0.366523	-0.190361	-0.327111	0.79137	-0.0881279	0	0	-0.195876	0.150346	-0.0358451	0.354963	-0.0862151	-0.533449	1.63053	0	0	0	0.451921	-0.241285	-0.412128	1.5024	0.652136	0	0
1.29	-0.298464	1.30338	-1.30604	0.769103	0.264434	0.92182	0.0328024	0.0845042	-0.414923	0.232577	0.0416966	0	0	-0.320581	-0.214461	-0.313927	0.876035	-0.172972	0	0	-0.200042	0.157911	-0.0250139	0.357238	-0.088861	-0.533781	1.62858	0	0	0	0.451928	-0.240482	-0.412027	1.50574	0.646272	0	0
1.3	-0.31773	1.30259	-1.29444	0.766745	0.253115	0.9223	0.035431	0.0854477	-0.418448	0.264208	0.0510557	0	0	-0.268869	-0.23286	-0.293123	0.957778	-0.257936	0	0	-0.201912	0.161224	-0.0162765	0.358467	-0.0906807	-0.534896	1.62633	0	0	0	0.451952	-0.240952	-0.406341	1.51464	0.710414	0	0
1.31	-0.327274	1.30178	-1.2911	0.764471	0.24193	0.92298	0.033349	0.0872539	-0.412797	0.28704	0.0613374	0	0	-0.217197	-0.246159	-0.269068	1.03276	-0.333445	0	0	-0.204786	0.161493	-0.00823887	0.358008	-0.0918318	-0.536635	1.62738	0	0	0	0.454039	-0.241522	-0.404512	1.52022	0.704037	0	0
1.32	-0.322305	1.30091	-1.30063	0.762392	0.230873	0.92395	0.0280833	0.0867287	-0.403578	0.305538	0.0728159	0	0	-0.168529	-0.251746	-0.24364	1.09799	-0.384688	0	0	-0.208722	0.157496	-0.0014404	0.35661	-0.0922802	-0.539195	1.62837	0	0	0	0.457191	-0.242519	-0.401895	1.52591	0.699884	0	0
1.33	-0.306267	1.30055	-1.31947	0.760532	0.219996	0.925131	0.0219232	0.0836568	-0.393485	0.321584	0.0840194	0	0	-0.122018	-0.250158	-0.216243	1.15586	-0.403168	0	0	-0.212857	0.15026	0.00391848	0.35434	-0.0922915	-0.542364	1.63046	0	0	0	0.461288	-0.243917	-0.398384	1.53106	0.696483	0	0
1.34	-0.282144	1.30144	-1.34494	0.758837	0.209363	0.926426	0.0161911	0.0782682	-0.383852	0.335517	0.0928571	0	0	-0.0741805	-0.244113	-0.187609	1.21392	-0.380339	0	0	-0.216027	0.140441	0.00765312	0.351758	-0.0920094	-0.545228	1.63267	0	0	0	0.466159	-0.246024	-0.393949	1.53493	0.691746	0	0
1.35	-0.255079	1.30321	-1.37105	0.757414	0.198857	0.927717	0.00940359	0.0724599	-0.374744	0.344477	0.0936241	0	0	-0.0246199	-0.236381	-0.159876	1.27144	-0.328918	0	0	-0.217637	0.130008	0.00848496	0.349112	-0.0917599	-0.546711	1.63484	0	0	0	0.471193	-0.249121	-0.38731	1.5388	0.711677	0	0
1.36	-0.225262	1.30354	-1.39957	0.756097	0.188291	0.929261	-0.00177935	0.0667984	-0.365236	0.348275	0.094236	0	0	0.0204587	-0.227569	-0.136938	1.3201	-0.273254	0	0	-0.220063	0.119464	0.00848692	0.34664	-0.091819	-0.54715	1.63723	0	0	0	0.476552	-0.252031	-0.382477	1.54042	0.71567	0	0
1.37	-0.195529	1.30275	-1.42844	0.754845	0.177724	0.930991	-0.0163442	0.0614234	-0.356778	0.348465	0.0989306	0	0	0.0611716	-0.218234	-0.118005	1.35828	-0.225467	0	0	-0.222859	0.10957	0.00879765	0.344847	-0.0922774	-0.547203	1.63818	0	0	0	0.481812	-0.253783	-0.378756	1.54042	0.718997	0	0
1.38	-0.171751	1.30246	-1.45148	0.753727	0.167144	0.932634	-0.0318318	0.0574025	-0.350334	0.345597	0.106815	0	0	0.100718	-0.210273	-0.102249	1.3884	-0.18855	0	0	-0.224277	0.101984	0.00976709	0.34241	-0.0935823	-0.546603	1.64145	0	0	0	0.487139	-0.253462	-0.377626	1.53777	0.696962	0	0
1.39	-0.152257	1.30254	-1.4711	0.752655	0.15655	0.934253	-0.0489182	0.0549967	-0.344137	0.337856	0.110042	0	0	0.138027	-0.202925	-0.0896473	1.40995	-0.162002	0	0	-0.22561	0.0959615	0.00958711	0.341873	-0.0943394	-0.544308	1.64352	0	0	0	0.49104	-0.25489	-0.374937	1.53732	0.702186	0	0
1.4	-0.134934	1.30264	-1.48975	0.751524	0.145978	0.935818	-0.0676113	0.0540168	-0.336712	0.32579	0.108708	0	0	0.172456	-0.196624	-0.0809138	1.42356	-0.140736	0	0	-0.226887	0.0904525	0.0106512	0.34185	-0.0950238	-0.542718	1.64616	0	0	0	0.494314	-0.255569	-0.372733	1.53754	0.707015	0	0
1.41	-0.117619	1.30336	-1.5095	0.750302	0.135432	0.937228	-0.0863326	0.053385	-0.327991	0.311689	0.108134	0	0	0.204918	-0.190932	-0.0759565	1.43011	-0.119568	0	0	-0.22741	0.0847106	0.0130941	0.341911	-0.095753	-0.541606	1.64899	0	0	0	0.496789	-0.254787	-0.372282	1.53853	0.711707	0	0
1.42	-0.100246	1.30468	-1.52962	0.749101	0.124836	0.93847	-0.104266	0.0521415	-0.31921	0.298504	0.108089	0	0	0.235536	-0.185748	-0.0739331	1.43003	-0.0961642	0	0	-0.227106	0.0789609	0.0158505	0.342178	-0.0963168	-0.54103	1.65185	0	0	0	0.498328	-0.253258	-0.373036	1.53999	0.71661	0	0
1.43	-0.0832438	1.30549	-1.55013	0.747884	0.114222	0.93974	-0.123055	0.0503228	-0.310635	0.285002	0.10556	0	0	0.262449	-0.181067	-0.0747036	1.42258	-0.0712418	0	0	-0.227435	0.0733132	0.019101	0.343035	-0.096762	-0.540659	1.65477	0	0	0	0.49908	-0.251544	-0.374447	1.5417	0.721845	0	0
1.44	-0.0654535	1.3053	-1.57257	0.746635	0.103663	0.941109	-0.14243	0.0472689	-0.303199	0.272538	0.106043	0	0	0.285092	-0.176507	-0.078686	1.40797	-0.045197	0	0	-0.229121	0.0672721	0.0232447	0.344491	-0.0972949	-0.540087	1.65792	0	0	0	0.499731	-0.24969	-0.376195	1.54412	0.727601	0	0
